<svg xmlns="http://www.w3.org/2000/svg" width="272" height="152" viewBox="0 0 272 152">
  <defs>
    <style>
      .f{fill:#fff}.d,.e,.g,.h,.i,.j{fill:none}.d,.e,.f,.g,.h,.i,.j{stroke:#3a36e4;stroke-linecap:round;stroke-linejoin:round;stroke-width:2px}.e{stroke-dasharray:5.208 5.208}.g{stroke-dasharray:5.159 5.159}.h{stroke-dasharray:9.553 9.553}.i{stroke-dasharray:6.996 6.996}.j{stroke-dasharray:7.061 7.061}
    </style>
  </defs>
  <path fill="#f2e1ff" d="M0 0h272v152H0z"/>
  <path fill="#e2bfff" d="M20.6 17h35.3v35.3H20.6z"/>
  <path fill="#fff" d="M26.5 22.8h23.6v23.6H26.5z"/>
  <path class="d" d="M50.1 42.5v4h-4"/>
  <path class="e" d="M40.9 46.5h-7.8"/>
  <path class="d" d="M30.5 46.5h-4v-4"/>
  <path class="e" d="M26.5 37.2v-7.8"/>
  <path class="d" d="M26.5 26.8v-4h4"/>
  <path class="e" d="M35.7 22.8h7.8"/>
  <path class="d" d="M46.1 22.8h4v4"/>
  <path class="e" d="M50.1 32v7.9"/>
  <path class="f" d="M136 19.6h112.3v112.3H136z"/>
  <path class="d" d="M50 76v4h-4"/>
  <path class="e" d="M40.9 80H33"/>
  <path class="d" d="M30.4 80h-4v-4M26.4 64.4v-4h4"/>
  <path class="e" d="M35.7 60.4h7.8"/>
  <path class="d" d="M46 60.4h4v4M50 126v4h-4"/>
  <path class="g" d="M40.8 130.1h-7.7"/>
  <path class="d" d="M30.5 130h-4v-4"/>
  <path class="h" d="M26.5 116.5v-14.3"/>
  <path class="d" d="M26.5 97.4v-4h4"/>
  <path class="g" d="M35.7 93.4h7.7"/>
  <path class="d" d="M46 93.4h4v4"/>
  <path class="h" d="M50 107v14.3"/>
  <path class="d" d="M111.5 34.7v4h-4"/>
  <path class="i" d="M100.5 38.7H76"/>
  <path class="d" d="M72.5 38.7h-4v-4M68.5 25.8v-4h4"/>
  <path class="i" d="M79.5 21.8H104"/>
  <path class="d" d="M107.5 21.8h4v4M111.5 77.8v4h-4"/>
  <path class="i" d="M100.5 81.8H76"/>
  <path class="d" d="M72.5 81.8h-4v-4"/>
  <path class="j" d="M68.5 70.7V60.1"/>
  <path class="d" d="M68.5 56.6v-4h4"/>
  <path class="i" d="M79.5 52.6H104"/>
  <path class="d" d="M107.5 52.6h4v4"/>
  <path class="j" d="M111.5 63.6v10.6"/>
  <path class="d" d="M107.5 96.5h4v6.6h-4"/>
  <path class="i" d="M100.5 103.1H76"/>
  <path class="d" d="M72.5 103.1h-4v-6.6h4"/>
  <path class="i" d="M79.5 96.5H104"/>
  <path class="d" d="M111.5 126.2v4h-4"/>
  <path class="i" d="M100.5 130.2H76"/>
  <path class="d" d="M72.5 130.2h-4v-4M68.5 122v-4h4"/>
  <path class="i" d="M79.5 117.9H104"/>
  <path class="d" d="M107.5 118h4v4"/>
  <circle class="f" cx="46.7" cy="42.5" r="6.8"/>
  <path class="d" d="M46.7 40v4.9M44.2 42.5h4.9"/>
</svg>
