<svg xmlns="http://www.w3.org/2000/svg" width="272" height="152" viewBox="0 0 272 152">
  <defs>
    <style>
      .a{fill:#d2fffa}.d,.g{fill:#fff}.c,.h{fill:#7bfff0}.d,.e,.f,.g,.h{stroke:#3a36e4;stroke-width:2px}.d,.e,.h{stroke-linecap:round}.d,.e,.f,.h{stroke-linejoin:round}.e,.f{fill:none}.g{stroke-miterlimit:10}
    </style>
  </defs>
  <path class="a" d="M0 0h272v152H0z"/>
  <path fill="#fff" d="M115.7 23.9h131.7v106.2H115.7z"/>
  <path class="c" d="M120.2 91.4L146.7 66a9 9 0 0113 .4l23.8 26a9 9 0 0012.6.7L212.9 79a9 9 0 0112.2.4l18 17.8a9 9 0 012.8 6.5V128a.5.5 0 01-.6.5h-128V98a9 9 0 012.9-6.5z"/>
  <circle class="c" cx="191" cy="59.5" r="9.4"/>
  <circle class="d" cx="42.1" cy="77.1" r="7.5"/>
  <path class="e" d="M42.1 69.6v15"/>
  <path class="f" d="M42.1 76.2l4.7-4.8M42.1 82.1l6.9-7"/>
  <path class="e" d="M42.1 61.6v3.3M31.1 66.2l2.4 2.3M26.6 77.1h3.3M31.1 88l2.4-2.3M42.1 92.6v-3.3M53 88l-2.3-2.3M57.5 77.1h-3.3M53 66.2l-2.3 2.3M36.5 29.4h11.2v11.2H36.5zM36.5 23.8v5.6h-5.6M47.7 46.2V40.6h5.6"/>
  <path class="d" d="M36.5 29.4h11.2v11.2H36.5z"/>
  <path class="e" d="M42.1 112v15.9M38.2 128.6h7.7M33.6 114.7v-3h17v3"/>
  <path class="a" d="M215.6 63.6a3.7 3.7 0 01-3.7-4.2 14 14 0 013-7c3.2-4 12-6 16.6.3.3-6.1 4.5-13 14-11.4 5.7 1 8.2 6.2 8.5 10.3 5.8-6.2 13.6-.8 15 5a10 10 0 010 4 3.6 3.6 0 01-3.6 3zM105.7 105a4.2 4.2 0 01-4.3-4.7 15.2 15.2 0 013.4-7.9c4-4.4 14.5-6.6 19.8.5.4-6.9 5.4-14.5 16.7-12.8 6.8 1 10 7 10.2 11.5 7-6.9 16.2-.8 17.8 5.6a10.6 10.6 0 01.2 4.4 4.3 4.3 0 01-4.3 3.4z"/>
  <path class="e" d="M115.7 23.9h131.7v106.2H115.7z"/>
  <path class="g" d="M79.3 53.5h64.9v55.2H79.3z"/>
  <path class="e" d="M135.8 83H87.7M135.8 72.9H87.7"/>
  <circle class="h" cx="114.2" cy="73.2" r="3.1"/>
  <circle class="h" cx="101.3" cy="83" r="3.1"/>
  <path class="g" d="M79.3 62.7h64.9"/>
  <rect class="c" x="114.2" y="92.5" width="23.3" height="9" rx="4.3"/>
  <rect class="c" x="86.5" y="92.2" width="23.3" height="9" rx="4.3"/>
  <path class="e" d="M123.9 97.4l1 1.3 2.9-3.5M96.6 95.2l3.2 3.2M99.8 95.2l-3.2 3.2"/>
</svg>
