<?xml version="1.0" encoding="UTF-8"?>
<svg width="110px" height="30px" viewBox="0 0 110 30" version="1.1" xmlns="http://www.w3.org/2000/svg" xmlns:xlink="http://www.w3.org/1999/xlink">
    <!-- Generator: Sketch 50.2 (55047) - http://www.bohemiancoding.com/sketch -->
    <title>Group 5</title>
    <desc>Created with Sketch.</desc>
    <defs></defs>
    <g id="Page-1" stroke="none" stroke-width="1" fill="none" fill-rule="evenodd">
        <g id="Homepage---Deskop-verion" transform="translate(-180.000000, -66.000000)">
            <g id="Header" transform="translate(176.000000, -138.000000)">
                <g id="Group-5" transform="translate(4.000000, 204.000000)">
                    <path d="M44.8288517,20.3517072 C45.6367025,20.3517072 46.3696572,20.1439845 47.0277379,19.728533 C47.6858186,19.3130815 48.1782371,18.7591545 48.5050082,18.0667353 L48.5050082,14.355387 C48.1782371,13.6629678 47.6858186,13.1090407 47.0277379,12.6935892 C46.3696572,12.2781377 45.6367025,12.0704151 44.8288517,12.0704151 C43.6760759,12.0704151 42.7093926,12.4673961 41.9287727,13.2613701 C41.1481529,14.0553441 40.7578488,15.0385646 40.7578488,16.2110611 C40.7578488,17.3835576 41.1481529,18.3667781 41.9287727,19.1607521 C42.7093926,19.9547261 43.6760759,20.3517072 44.8288517,20.3517072 Z M44.0391588,8.70527461 C45.8273229,8.70527461 47.3159244,9.29613012 48.5050082,10.4778589 L48.5050082,10.394769 C48.5050082,9.96085296 48.6207378,9.62618871 48.8522007,9.39076618 C49.0836636,9.15534365 49.412699,9.03763416 49.8393168,9.03763416 L50.8740868,9.03763416 C51.3007046,9.03763416 51.62974,9.15534365 51.8612028,9.39076618 C52.0926657,9.62618871 52.2083954,9.96085296 52.2083954,10.394769 L52.2083954,22.0273533 C52.2083954,22.4612693 52.0926657,22.7959335 51.8612028,23.0313561 C51.62974,23.2667786 51.3007046,23.3844881 50.8740868,23.3844881 L49.8393168,23.3844881 C49.412699,23.3844881 49.0836636,23.2667786 48.8522007,23.0313561 C48.6207378,22.7959335 48.5050082,22.4612693 48.5050082,22.0273533 L48.5050082,21.9442634 C47.3159244,23.1259921 45.8273229,23.7168476 44.0391588,23.7168476 C42.7139205,23.7168476 41.5112394,23.3775673 40.4310794,22.6989965 C39.3509193,22.0204257 38.5090425,21.1087541 37.9054237,19.9639544 C37.3018049,18.8191547 37,17.5682027 37,16.2110611 C37,14.8539195 37.3018049,13.6029676 37.9054237,12.4581679 C38.5090425,11.3133681 39.3509193,10.4016965 40.4310794,9.72312573 C41.5112394,9.04455492 42.7139205,8.70527461 44.0391588,8.70527461 Z M62.8692491,12.0704151 C62.197553,12.0704151 61.5757895,12.2781377 61.0039401,12.6935892 C60.4320907,13.1090407 59.9555566,13.676816 59.5743237,14.3969319 L59.5743237,22.0273533 C59.5743237,22.4612693 59.458594,22.7959335 59.2271311,23.0313561 C58.9956683,23.2667786 58.6666329,23.3844881 58.240015,23.3844881 L57.1643989,23.3844881 C56.7377811,23.3844881 56.4087457,23.2667786 56.1772828,23.0313561 C55.94582,22.7959335 55.8300903,22.4612693 55.8300903,22.0273533 L55.8300903,10.394769 C55.8300903,9.96085296 55.94582,9.62618871 56.1772828,9.39076618 C56.4087457,9.15534365 56.7377811,9.03763416 57.1643989,9.03763416 L58.240015,9.03763416 C58.6666329,9.03763416 58.9956683,9.15534365 59.2271311,9.39076618 C59.458594,9.62618871 59.5743237,9.96085296 59.5743237,10.394769 L59.5743237,10.7963701 C60.6000218,9.40229947 61.857164,8.70527461 63.3457879,8.70527461 L63.4819418,8.70527461 C63.8631748,8.72373912 64.1422876,8.87606906 64.3192886,9.16226899 C64.4962896,9.44846892 64.5666351,9.80390544 64.5303272,10.2285892 L64.4758656,10.9210049 C64.4395577,11.354921 64.2988667,11.6595808 64.0537884,11.8349937 C63.8087101,12.0104066 63.4501749,12.0888796 62.9781722,12.0704151 L62.8692491,12.0704151 Z M71.7737169,18.4129431 C71.7737169,19.1053623 71.9393692,19.6108208 72.2706788,19.9293336 C72.6019884,20.2478464 73.1534064,20.4071005 73.9249492,20.4071005 C74.3334131,20.4071005 74.6579101,20.5155778 74.8984499,20.7325358 C75.1389898,20.9494939 75.2592579,21.2841581 75.2592579,21.7365387 L75.2592579,22.2627746 C75.2592579,23.1121422 74.9370301,23.5783641 74.2925649,23.6614544 C74.0111787,23.6983834 73.6844125,23.7168476 73.3122565,23.7168476 C69.7903902,23.7168476 68.0294835,22.0273702 68.0294835,18.6483645 L68.0294835,12.3473813 L67.1717137,12.3473813 C66.7450959,12.3473813 66.4160605,12.2296719 66.1845976,11.9942493 C65.9531347,11.7588268 65.837405,11.4241625 65.837405,10.9902465 L65.837405,10.394769 C65.837405,9.96085296 65.9531347,9.62618871 66.1845976,9.39076618 C66.4160605,9.15534365 66.7450959,9.03763416 67.1717137,9.03763416 L68.0294835,9.03763416 L68.0294835,6.5172409 C68.0294835,5.64940884 68.4560949,5.17857086 69.3093306,5.10471281 L70.3849467,5.00777461 C70.8297185,4.97084558 71.1723692,5.06547479 71.412909,5.29166506 C71.6534488,5.51785533 71.7737169,5.85713564 71.7737169,6.30951618 L71.7737169,9.03763416 L73.7615645,9.03763416 C74.1881823,9.03763416 74.5172177,9.15534365 74.7486806,9.39076618 C74.9801434,9.62618871 75.0958731,9.96085296 75.0958731,10.394769 L75.0958731,10.9902465 C75.0958731,11.4241625 74.9801434,11.7588268 74.7486806,11.9942493 C74.5172177,12.2296719 74.1881823,12.3473813 73.7615645,12.3473813 L71.7737169,12.3473813 L71.7737169,18.4129431 Z M87.1046509,10.394769 C87.1046509,9.96085296 87.2203806,9.62618871 87.4518434,9.39076618 C87.6833063,9.15534365 88.0123417,9.03763416 88.4389595,9.03763416 L89.5145757,9.03763416 C89.9411935,9.03763416 90.2702289,9.15534365 90.5016917,9.39076618 C90.7331546,9.62618871 90.8488843,9.96085296 90.8488843,10.394769 L90.8488843,22.0273533 C90.8488843,22.4612693 90.7331546,22.7959335 90.5016917,23.0313561 C90.2702289,23.2667786 89.9411935,23.3844881 89.5145757,23.3844881 L88.4389595,23.3844881 C88.0123417,23.3844881 87.6833063,23.2667786 87.4518434,23.0313561 C87.2203806,22.7959335 87.1046509,22.4612693 87.1046509,22.0273533 L87.1046509,21.8057802 C86.6235712,22.3874123 86.0313075,22.8513262 85.3278419,23.1975358 C84.6243764,23.5437454 83.8959601,23.7168476 83.1425711,23.7168476 C81.4814847,23.7168476 80.1267666,23.1767688 79.078376,22.0965948 C78.0299854,21.0164209 77.5057979,19.608523 77.5057979,17.8728589 L77.5057979,10.394769 C77.5057979,9.96085296 77.6215276,9.62618871 77.8529905,9.39076618 C78.0844533,9.15534365 78.4134887,9.03763416 78.8401066,9.03763416 L79.9157227,9.03763416 C80.3423405,9.03763416 80.6713759,9.15534365 80.9028388,9.39076618 C81.1343017,9.62618871 81.2500313,9.96085296 81.2500313,10.394769 L81.2500313,17.4989544 C81.2500313,18.3113929 81.506452,18.9899535 82.0193011,19.5346566 C82.5321502,20.0793597 83.2106439,20.3517072 84.0548026,20.3517072 C84.626652,20.3517072 85.1939544,20.1578327 85.7567268,19.770078 C86.3194993,19.3823232 86.7688028,18.9161013 87.1046509,18.3713982 L87.1046509,10.394769 Z M101.850123,20.3517072 C103.002899,20.3517072 103.969582,19.9547261 104.750202,19.1607521 C105.530822,18.3667781 105.921126,17.3835576 105.921126,16.2110611 C105.921126,15.0385646 105.530822,14.0553441 104.750202,13.2613701 C103.969582,12.4673961 103.002899,12.0704151 101.850123,12.0704151 C101.042272,12.0704151 100.309317,12.2781377 99.6512367,12.6935892 C98.993156,13.1090407 98.5007375,13.6629678 98.1739664,14.355387 L98.1739664,18.0667353 C98.5007375,18.7591545 98.993156,19.3130815 99.6512367,19.728533 C100.309317,20.1439845 101.042272,20.3517072 101.850123,20.3517072 Z M102.639816,8.70527461 C103.965054,8.70527461 105.167735,9.04455492 106.247895,9.72312573 C107.328055,10.4016965 108.169932,11.3133681 108.773551,12.4581679 C109.37717,13.6029676 109.678975,14.8539195 109.678975,16.2110611 C109.678975,17.5682027 109.37717,18.8191547 108.773551,19.9639544 C108.169932,21.1087541 107.328055,22.0204257 106.247895,22.6989965 C105.167735,23.3775673 103.965054,23.7168476 102.639816,23.7168476 C100.851652,23.7168476 99.3630501,23.1259921 98.1739664,21.9442634 L98.1739664,28.4529712 C98.1739664,28.8868873 98.0582367,29.2215515 97.8267739,29.456974 C97.595311,29.6923966 97.2662756,29.8101061 96.8396578,29.8101061 L95.8048878,29.8101061 C95.37827,29.8101061 95.0492346,29.6923966 94.8177717,29.456974 C94.5863089,29.2215515 94.4705792,28.8868873 94.4705792,28.4529712 L94.4705792,10.394769 C94.4705792,9.96085296 94.5863089,9.62618871 94.8177717,9.39076618 C95.0492346,9.15534365 95.37827,9.03763416 95.8048878,9.03763416 L96.8396578,9.03763416 C97.2662756,9.03763416 97.595311,9.15534365 97.8267739,9.39076618 C98.0582367,9.62618871 98.1739664,9.96085296 98.1739664,10.394769 L98.1739664,10.4778589 C99.3630501,9.29613012 100.851652,8.70527461 102.639816,8.70527461 Z" id="artup_logo_dark" fill="#2B3347"></path>
                    <g id="Group" fill-rule="nonzero">
                        <path d="M24.793227,26.9908232 L18.7920126,16.481427 C16.976696,16.236324 15.1374474,16.2296818 13.3208784,16.4589727 L7.30558702,26.9908248 C7.22534713,27.1328261 7.13572312,27.2666048 7.04,27.3946917 C12.3639498,22.6868107 20.4868925,22.8936456 25.55902,28.0224719 L25.6,27.9807257 C25.2865506,27.7058914 25.0128304,27.3741336 24.793227,26.9908232 Z" id="Shape" fill="#9771AC"></path>
                        <path d="M16,11.7415328 L12.6575853,5.88980783 C11.9364325,4.62733199 11.9951453,3.12685794 12.6788781,1.95505618 C12.6723016,1.9662922 12.663535,1.97673584 12.6575853,1.98891981 L0.804761031,22.7373143 C0.453109155,23.1952738 0.199781797,23.7326729 0.0790678025,24.3197592 C0.0787551675,24.3219743 0.0782854133,24.324507 0.0775014209,24.3276717 C0.0544866733,24.4447733 0.0361678642,24.5634564 0.0230163508,24.6843546 C0.0198851908,24.7169527 0.0184759283,24.7495508 0.0159700383,24.7827825 C0.00829845582,24.8714002 0.00375803332,24.9615995 0.00219165168,25.0521148 C0.00219165168,25.069839 0,25.0878776 0,25.1062337 C0,25.1530737 0.0053228117,25.1986482 0.00688919333,25.2451722 C0.00829845582,25.3005583 0.0108027425,25.3553108 0.015343165,25.4091137 C0.0223894775,25.5072256 0.0346014825,25.6021727 0.0494748934,25.6974358 C0.0518236642,25.716108 0.0552674593,25.7350977 0.0582431034,25.7540875 C0.311883097,27.2656388 1.4335358,28.4784259 2.89416022,28.8651758 C2.90887811,28.8692901 2.92453391,28.8734043 2.93987868,28.8772026 C3.04008221,28.9025218 3.14153789,28.9249922 3.2440902,28.9417668 C3.30718636,28.952528 3.36997149,28.9629717 3.43369452,28.9702506 C3.47909875,28.975948 3.52403482,28.9797447 3.56881217,28.983859 C3.66870307,28.9917715 3.76874948,28.9977849 3.87004964,28.9987344 C3.87772123,28.9987344 3.88476754,29 3.89243912,29 C3.89416102,29 3.89557028,28.999684 3.89760642,28.999684 C3.9322079,28.999684 3.96540012,28.9955698 4.00031424,28.9946202 C4.10474556,28.9914555 4.20886264,28.9876572 4.31219734,28.97658 C4.38860213,28.9686675 4.46375478,28.9544256 4.53890743,28.9420828 C4.59652526,28.9319551 4.65476837,28.9240426 4.71175772,28.9116998 C4.80209802,28.8923941 4.89087194,28.8686581 4.97948874,28.8430214 C5.01455997,28.8325778 5.0504136,28.8233997 5.08501508,28.8123225 C5.19085567,28.7784588 5.29450299,28.7401633 5.39689818,28.6977536 C5.40347474,28.6949049 5.41114632,28.6917402 5.4188179,28.6885755 C6.01816009,28.4328531 6.53890583,28.0296445 6.93909309,27.5264266 C7.10348941,27.3194433 7.24455674,27.0941023 7.36511522,26.8561024 L13.2680428,16.5239981 L16,11.7415328 Z" id="Shape" fill="#E8507B"></path>
                        <path d="M31.2995439,22.8281003 L19.3544606,1.94381615 C19.3475778,1.93165666 19.3403826,1.92123539 19.3331875,1.91002505 C19.2890763,1.8343888 19.2424616,1.76427769 19.1958484,1.69385288 C19.1701944,1.65706072 19.1464194,1.61995324 19.120453,1.58442392 C19.0738383,1.51952424 19.023783,1.45873163 18.9734153,1.39809586 C18.9408801,1.35893486 18.9099082,1.31866948 18.8758065,1.28029755 C18.8310691,1.23039997 18.7835173,1.18429091 18.7372165,1.13739279 C18.6921667,1.09254819 18.6489941,1.04643914 18.6017547,1.00333115 C18.5610841,0.967801822 18.5201012,0.934326028 18.4794322,0.900376466 C18.4203045,0.851267962 18.3624277,0.80152723 18.3011103,0.756367327 C18.2638819,0.728892048 18.2250886,0.703627145 18.1872339,0.677256246 C18.1187214,0.630831885 18.0502072,0.584249064 17.9779401,0.541614843 C17.9357062,0.515402405 17.8915951,0.493453874 17.8481086,0.469610273 C17.7814717,0.432502801 17.7132715,0.396815014 17.6450713,0.364603677 C17.589698,0.338391239 17.5327599,0.315495173 17.4770727,0.291966879 C17.4201345,0.26828174 17.3625717,0.244753445 17.3053196,0.224067755 C17.2383704,0.200224154 17.1714211,0.178906236 17.1038472,0.158694313 C17.0534795,0.144324445 17.0034242,0.12963927 16.9530549,0.11653386 C16.8807878,0.0982170074 16.8085207,0.0827427595 16.7365659,0.0691619646 C16.6861982,0.0590560034 16.6367675,0.0503713446 16.5854612,0.0426342207 C16.51601,0.032054492 16.4453062,0.0238436006 16.3742901,0.0173693177 C16.3182906,0.0120010311 16.2632297,0.00742181791 16.2072302,0.00489451913 C16.1427845,0.0015781469 16.0797452,0 16.0154549,0 C15.9513216,0 15.8871883,0.00157976386 15.8236797,0.00489451913 C15.7684618,0.00742020096 15.7123069,0.0120010311 15.6564628,0.0173693177 C15.5856036,0.0238436006 15.5152122,0.032054492 15.4446654,0.0426342207 C15.394767,0.0503713446 15.344867,0.0590560034 15.2949687,0.0691619646 C15.2220753,0.0827411426 15.1491819,0.0982170074 15.078792,0.11653386 C15.0270164,0.12963927 14.9764917,0.144326062 14.9265917,0.159483387 C14.8596425,0.178906236 14.792224,0.200222537 14.7263704,0.224066138 C14.6673995,0.244751828 14.6104614,0.268280123 14.5528969,0.291965262 C14.4970544,0.315493556 14.4408979,0.338389622 14.3864633,0.363969831 C14.3174814,0.396813397 14.2489673,0.432501184 14.1817057,0.470082424 C14.1383762,0.493452257 14.0952037,0.515400788 14.0532821,0.540982614 C13.9803887,0.584249064 13.9120315,0.630830268 13.8432066,0.678834393 C13.8048826,0.704414602 13.7671849,0.728890431 13.7312076,0.755891943 C13.6677005,0.802316303 13.6091975,0.851583268 13.5502267,0.901480845 C13.5094007,0.935271946 13.4688871,0.967801822 13.4294675,1.00301422 C13.3820711,1.04706975 13.3381169,1.09349411 13.2922838,1.13928624 C13.2462954,1.18618437 13.1984297,1.23102896 13.1549448,1.28029593 C13.1210016,1.31866624 13.0889342,1.35972232 13.0571807,1.39904178 C13.0069684,1.45967755 12.95707,1.51952424 12.9109246,1.58379169 C12.8841766,1.61995163 12.8607122,1.65737602 12.8349029,1.69511572 C12.7881328,1.76427769 12.7410487,1.83533634 12.6974069,1.91002505 C12.0143075,3.0793171 11.9556491,4.57657751 12.6761337,5.83634944 L16.0154517,11.6755415 L18.7575462,16.4701879 L24.5107829,26.5303569 C24.9619073,27.6707508 25.926723,28.5455487 27.1186665,28.8638864 C27.1327445,28.8689394 27.1486998,28.8727296 27.1643426,28.8765181 C27.264141,28.9020983 27.3651903,28.9242053 27.4674906,28.9415746 C27.530373,28.9519959 27.5929414,28.9630494 27.6570747,28.9703127 C27.7018121,28.9759979 27.746548,28.9797865 27.7919118,28.9835766 C27.8910838,28.9917875 27.9911945,28.9981033 28.0922439,28.9984202 C28.1000653,28.9984202 28.1072605,29 28.114768,29 C28.1163329,29 28.1178962,28.9996847 28.1197735,28.9996847 C28.154186,28.9996847 28.1876614,28.9952639 28.2220738,28.9946317 C28.32719,28.9914738 28.4310553,28.9876837 28.533668,28.9766302 C28.6096896,28.968104 28.6841463,28.9545232 28.7598557,28.9418915 C28.8177325,28.9317856 28.8752953,28.92389 28.9322335,28.9115736 C29.0226454,28.891994 29.1111817,28.8679919 29.1994041,28.8417795 C29.2350691,28.8313582 29.2707326,28.8221998 29.3048327,28.8108293 C29.4108875,28.7767213 29.5141265,28.7381925 29.6164268,28.6955583 C29.6233096,28.6924004 29.6311311,28.6895578 29.6386386,28.6863999 C30.2364868,28.4286979 30.7558115,28.0222491 31.1553156,27.5147406 C31.682774,26.8449046 32,25.9978989 32,25.0750985 C32.0000048,24.2391447 31.7403433,23.4644589 31.2995439,22.8281003 Z" id="Shape" fill="#1EB8E4"></path>
                    </g>
                </g>
            </g>
        </g>
    </g>
</svg>