<svg xmlns="http://www.w3.org/2000/svg" width="368" height="276" viewBox="0 0 368 276">
  <defs>
    <style>
      .b{fill:#3a36e4}.c{fill:#fff}.d{fill:#b0c2f8;stroke:#3a36e4;stroke-miterlimit:10;stroke-width:2px}
    </style>
  </defs>
  <path d="M186 41.2C161.3 25 128.4-1 75.7 17.8-5.8 47.1 2.7 153.4 15.2 178c22.5 44.4 70.3 78.4 125.4 56.3 50.3-20.2 63.9 44 137.2 30.2 54.8-10.3 90.2-72.6 82.5-150.8-3.5-35.3-36.6-93-97.3-80.8-46.9 9.4-46.5 28.5-77 8.4Z" fill="#ececfe"/>
  <path class="b" d="M327.6 104.2a1.1 1.1 0 0 1-1-1c0-4.3-2.2-6.4-6.4-6.4a1.1 1.1 0 0 1 0-2.2c4.2 0 6.3-2.2 6.3-6.4a1.1 1.1 0 0 1 2.2 0c0 4.2 2.2 6.4 6.4 6.4a1.1 1.1 0 1 1 0 2.2c-4.2 0-6.4 2.1-6.4 6.3a1.1 1.1 0 0 1-1 1.1Zm-2.6-8.5a6.7 6.7 0 0 1 2.6 2.6 6.8 6.8 0 0 1 2.7-2.6 6.7 6.7 0 0 1-2.7-2.7 6.7 6.7 0 0 1-2.6 2.7ZM57.4 136a1.1 1.1 0 0 1-1.1-1.1c0-7.2-3.8-11-11-11a1.1 1.1 0 0 1 0-2.2c7.2 0 11-3.8 11-11a1.1 1.1 0 0 1 2.2 0c0 7.2 3.8 11 11 11a1.1 1.1 0 0 1 0 2.2c-7.2 0-11 3.8-11 11a1.1 1.1 0 0 1-1.1 1Zm-5.8-13.2a10.3 10.3 0 0 1 5.8 5.8 10.3 10.3 0 0 1 5.8-5.8 10.3 10.3 0 0 1-5.8-5.8 10.3 10.3 0 0 1-5.8 5.8ZM66.5 204.3a1.1 1.1 0 0 1-1.1-1.1c0-1.9-.9-2.7-2.7-2.7a1.1 1.1 0 1 1 0-2.2c1.8 0 2.7-.8 2.7-2.6a1.1 1.1 0 0 1 2.2 0c0 1.8.8 2.6 2.6 2.6a1.1 1.1 0 0 1 0 2.2c-1.8 0-2.6.8-2.6 2.7a1.1 1.1 0 0 1-1.1 1Zm-.4-4.9a3.7 3.7 0 0 1 .4.4 4 4 0 0 1 .4-.4 4 4 0 0 1-.4-.4 3.8 3.8 0 0 1-.4.4ZM130.3 61.3a1.1 1.1 0 0 1-1.1-1c0-2-.8-2.7-2.7-2.7a1.1 1.1 0 1 1 0-2.2c1.9 0 2.7-.8 2.7-2.7a1.1 1.1 0 0 1 2.2 0c0 1.9.8 2.7 2.6 2.7a1.1 1.1 0 1 1 0 2.2c-1.8 0-2.6.8-2.6 2.6a1.1 1.1 0 0 1-1.1 1.1Zm-.4-4.8a4 4 0 0 1 .4.4 4.2 4.2 0 0 1 .4-.4 4.2 4.2 0 0 1-.4-.4 4 4 0 0 1-.4.4ZM302.1 155.2a1.1 1.1 0 0 1-1-1c0-2-.9-2.7-2.7-2.7a1.1 1.1 0 1 1 0-2.2c1.8 0 2.6-.8 2.6-2.7a1.1 1.1 0 1 1 2.2 0c0 1.9.8 2.7 2.7 2.7a1.1 1.1 0 1 1 0 2.2c-1.9 0-2.7.8-2.7 2.6a1.1 1.1 0 0 1-1 1.1Zm-.4-4.8a4 4 0 0 1 .4.4 3.7 3.7 0 0 1 .4-.4 4 4 0 0 1-.4-.4 4.2 4.2 0 0 1-.4.4Z"/>
  <path class="c" d="M9.9 89a5.3 5.3 0 0 1-5.3-6 20.3 20.3 0 0 1 4.2-10.2c4.7-5.8 17.6-8.7 24.1.5.5-8.9 6.5-18.7 20.3-16.5 8.3 1.3 12 9 12.3 15 8.5-9 19.8-1.2 21.7 7.2a14.6 14.6 0 0 1 .2 5.7 5.3 5.3 0 0 1-5.2 4.4ZM209 224.1a8 8 0 0 1-7.9-9c.7-4.8 2.3-10.6 6.3-15.3 7-8.6 26.2-12.8 36 .8.7-13.2 9.7-28 30.2-24.6 12.4 2 18 13.5 18.4 22.3 12.7-13.4 29.5-1.7 32.4 10.8a21.9 21.9 0 0 1 .3 8.5 7.9 7.9 0 0 1-7.8 6.5Z"/>
  <path class="d" d="M114.1 158.1v50.6h140.6v-51.1l-140.6.5z"/>
  <path class="c" d="M145.7 186.9a7 7 0 0 0 7-8 27 27 0 0 0-5.5-13.6c-6.3-7.6-23.3-11.4-32 .7-.6-11.8-8.6-24.8-26.9-21.9-11 1.8-15.9 12-16.3 19.8-11.2-11.9-26.2-1.5-28.7 9.6a19.4 19.4 0 0 0-.3 7.6 7 7 0 0 0 7 5.8Z"/>
  <path class="d" d="M160.9 76.5v11.7h7.5v-9.9a4.4 4.4 0 0 1 4.4-4.4h23a4.4 4.4 0 0 1 4.3 4.4v9.9h7.6V76.5a10.1 10.1 0 0 0-10.1-10.1H171a10.1 10.1 0 0 0-10.1 10Z"/>
  <path class="d" d="M174.1 169h-44.5a20.6 20.6 0 0 1-20.6-20.5V86.8h150.8v61.7a20.6 20.6 0 0 1-20.6 20.6h-44.5"/>
  <path class="d" d="M174.1 157.4h20.6V178h-20.6z"/>
  <path class="d" d="M179.9 163.2h8.9v8.9h-8.9z"/>
  <path class="c" d="M221.8 100.4a5.3 5.3 0 0 1-5.3-5.9 21.6 21.6 0 0 1 4.5-11.1c5-6 18.4-9 25.3.5.5-9.3 6.8-19.6 21.2-17.3 8.7 1.4 12.6 9.5 13 15.7 8.8-9.4 20.6-1.2 22.6 7.6a15.3 15.3 0 0 1 .2 6.2 5.3 5.3 0 0 1-5.2 4.3Z"/>
</svg>
